<?xml version="1.0" encoding="iso-8859-1"?>
<!-- Generator: Adobe Illustrator 19.0.0, SVG Export Plug-In . SVG Version: 6.00 Build 0)  -->
<svg version="1.1" id="Capa_1" xmlns="http://www.w3.org/2000/svg" xmlns:xlink="http://www.w3.org/1999/xlink" x="0px" y="0px"
	 viewBox="0 0 512 512" style="enable-background:new 0 0 512 512;" xml:space="preserve">
<path style="fill:#159CE4;" d="M347,121c-24.814,0-45-20.186-45-45s20.186-45,45-45s45,20.186,45,45S371.814,121,347,121z"/>
<path style="fill:#0A4EAF;" d="M227,391H15c-8.284,0-15-6.716-15-15v-60h242v60C242,384.284,235.284,391,227,391z"/>
<path style="fill:#08469C;" d="M242,316H121v75h106c8.284,0,15-6.716,15-15V316z"/>
<path style="fill:#032E68;" d="M227,301H15c-8.291,0-15,6.709-15,15v15h242v-15C242,307.709,235.291,301,227,301z"/>
<path style="fill:#001D56;" d="M227,301H121v30h121v-15C242,307.709,235.291,301,227,301z"/>
<path style="fill:#0A4EAF;" d="M15,481c-8.291,0-15-6.709-15-15v-90c0-8.291,6.709-15,15-15s15,6.709,15,15v90
	C30,474.291,23.291,481,15,481z"/>
<path style="fill:#08469C;" d="M227,481c-8.291,0-15-6.709-15-15v-90c0-8.291,6.709-15,15-15s15,6.709,15,15v90
	C242,474.291,235.291,481,227,481z"/>
<path style="fill:#159CE4;" d="M407.498,204.218l-48.252,16.055l-46.846-70.24c-10.999-17.582-36.631-18.946-49.395-2.036
	l-62.869,83.846l-0.016-0.013c-25.777,34.432-8.09,83.874,33.442,94.233L287,339.438V451c0,16.538,13.462,30,30,30s30-13.462,30-30
	V316c0-13.799-9.346-25.767-22.72-29.106l-76.157-19.043l33.472-44.619l-0.037,0.005l3.992-5.323l36.489,54.727
	c7.393,11.079,21.301,16.143,34.453,11.821l86.851-28.945L407.498,204.218z"/>
<path style="fill:#001D56;" d="M452,271c-33.091,0-60-26.909-60-60s26.909-60,60-60s60,26.909,60,60S485.091,271,452,271z"/>
<path style="fill:#C5C9F7;" d="M452,181c-16.538,0-30,13.462-30,30s13.462,30,30,30s30-13.462,30-30S468.538,181,452,181z"/>
<g>
</g>
<g>
</g>
<g>
</g>
<g>
</g>
<g>
</g>
<g>
</g>
<g>
</g>
<g>
</g>
<g>
</g>
<g>
</g>
<g>
</g>
<g>
</g>
<g>
</g>
<g>
</g>
<g>
</g>
</svg>
